<?xml version="1.0" encoding="utf-8"?>
<!-- Generator: Adobe Illustrator 24.1.1, SVG Export Plug-In . SVG Version: 6.00 Build 0)  -->
<svg version="1.1" id="Layer_1" xmlns="http://www.w3.org/2000/svg" xmlns:xlink="http://www.w3.org/1999/xlink" x="0px" y="0px"
	 viewBox="0 0 500 500" style="enable-background:new 0 0 500 500;" xml:space="preserve">
<style type="text/css">
	.st0{fill:#FFFFFF;}
	.st1{fill:#2B9BFF;}
	.st2{fill:#FF0000;}
	.st3{fill:#191919;}
</style>
<g>
	<g id="_x23_ffffffff">
		<path class="st0" d="M113.9,214.5c3.4-0.6,7.1,0.5,9.5,3c2.5,2.5,3.7,6.2,3,9.6c-0.7,3.8-3.5,7.1-7.2,8.2
			c-3.6,1.2-7.7,0.4-10.5-2.1c-2.8-2.4-4.2-6.4-3.5-10.1C105.9,218.7,109.6,215.1,113.9,214.5z"/>
		<path class="st0" d="M87.9,237.6c3.2-6.5,8.7-11.9,15.4-14.7c-3.1,3.6-6,7.5-7.8,12c-2.4,5.8-3.1,12.1-2.3,18.3
			c-2.9-0.1-5.8,0.7-8.2,2.3C84.1,249.4,85.1,243.1,87.9,237.6z"/>
		<path class="st0" d="M128.4,222.9c6.5,2.9,11.9,8,15.1,14.4c2.8,5.6,3.9,12,3.1,18.2c-1.7-5.7-4.5-11.2-8.6-15.6
			c-3.1-3.4-6.9-6.1-11-8.2c-0.1-0.7,0.5-1.3,0.7-2C128.6,227.6,128.7,225.2,128.4,222.9z"/>
		<path class="st0" d="M89.6,255.5c3.2-0.8,6.7-0.1,9.3,2c2.9,2.2,4.4,5.9,4.1,9.5c-0.3,3.5-2.5,6.7-5.6,8.4
			c-3.4,1.9-7.9,1.7-11.1-0.5c-3.2-2.1-5.1-6-4.7-9.9C81.9,260.6,85.3,256.6,89.6,255.5z"/>
		<path class="st0" d="M137.3,255.4c3.2-0.6,6.6,0.2,9.1,2.3c2.9,2.4,4.3,6.4,3.6,10.1c-0.6,3.7-3.4,7-7,8.2
			c-3.2,1.1-6.9,0.6-9.7-1.3c-3.4-2.3-5.2-6.7-4.4-10.7C129.5,259.8,133,256.2,137.3,255.4z"/>
		<path class="st0" d="M98.4,277.2c10,2.1,20.9-0.1,29.1-6.3c1.2,2.6,3.1,4.8,5.6,6.3C123,284.2,108.6,284.2,98.4,277.2z"/>
	</g>
	<g id="_x23_2b9bffff">
		<path class="st1" d="M87.2,201.9c18.8-0.1,37.6,0,56.3,0c10.7,0.1,20.2,9.6,20.4,20.2c0,18.7,0.1,37.4,0,56.1
			c-0.4,10.4-9.5,19.6-20,20c-19,0-38,0-57,0c-10.4-0.7-19.2-10.1-19.4-20.4c0-18,0-36.1,0-54.1c0-2.3,0.3-4.6,1-6.8
			C71,208.7,78.7,202.4,87.2,201.9 M113.9,214.5c-4.3,0.7-7.9,4.3-8.7,8.6c-0.7,3.7,0.6,7.6,3.5,10.1c2.8,2.5,6.9,3.3,10.5,2.1
			c3.7-1.2,6.5-4.4,7.2-8.2c0.7-3.4-0.5-7.2-3-9.6C120.9,215,117.3,213.8,113.9,214.5 M87.9,237.6c-2.7,5.5-3.7,11.8-2.9,17.8
			c2.5-1.6,5.3-2.4,8.2-2.3c-0.8-6.2,0-12.5,2.3-18.3c1.7-4.5,4.6-8.4,7.8-12C96.6,225.7,91,231.1,87.9,237.6 M128.4,222.9
			c0.3,2.3,0.2,4.7-0.7,6.8c-0.2,0.7-0.8,1.3-0.7,2c4.1,2.1,7.9,4.8,11,8.2c4.2,4.4,6.9,9.9,8.6,15.6c0.8-6.2-0.3-12.6-3.1-18.2
			C140.3,230.9,134.9,225.8,128.4,222.9 M89.6,255.5c-4.3,1-7.7,5-8,9.5c-0.4,3.8,1.5,7.8,4.7,9.9c3.2,2.2,7.7,2.4,11.1,0.5
			c3.1-1.6,5.3-4.9,5.6-8.4c0.4-3.6-1.2-7.3-4.1-9.5C96.3,255.4,92.8,254.7,89.6,255.5 M137.3,255.4c-4.2,0.8-7.7,4.4-8.4,8.6
			c-0.8,4,1,8.4,4.4,10.7c2.8,2,6.5,2.5,9.7,1.3c3.6-1.2,6.4-4.5,7-8.2c0.7-3.7-0.7-7.7-3.6-10.1
			C143.9,255.6,140.4,254.8,137.3,255.4 M98.4,277.2c10.2,7,24.5,7,34.7,0c-2.5-1.5-4.4-3.6-5.6-6.3
			C119.3,277.1,108.5,279.3,98.4,277.2z"/>
	</g>
	<g id="_x23_ff0000ff">
		<path class="st2" d="M394.6,226.3c3.2-1,6.9,1.3,7.3,4.6c0.6,3.1-1.8,6.4-5,6.7c-3,0.5-6-1.8-6.4-4.7
			C389.9,230,391.8,227,394.6,226.3z"/>
	</g>
	<g id="_x23_191919ff">
		<path class="st3" d="M421.3,226.6c0.4,0,1.2,0,1.6,0c0,3.9,0,7.8,0,11.8c2.7,0,5.5,0,8.2,0c0.4,2.4,0.4,4.9,0,7.3
			c-2.7,0-5.5,0-8.2,0c0,4.8,0,9.7,0,14.5c0.1,1.9,0.4,4.3,2.2,5.3c2.1,0.9,4.5,0.5,6.6,0.1c0.9,2.4,0.9,5.1,0.5,7.5
			c-4.7,1-10.1,1.3-14.4-1.3c-3.2-1.9-4.3-5.7-4.4-9.2c-0.1-5.6,0-11.2,0-16.9c-1.5,0-2.9,0-4.4,0c-0.1-0.5-0.2-0.9-0.3-1.4
			C412.9,238.4,417.1,232.5,421.3,226.6z"/>
		<path class="st3" d="M182,232c4.3-3.5,10.1-4.7,15.5-4.2c4.7,0.5,9.5,2.5,12.5,6.3c-1.6,2.5-3.8,4.4-6.2,6.2
			c-3.2-3.8-9-4.5-13.5-2.9c-2.6,0.8-4.3,4.7-2,6.7c3.4,2.7,8.1,2.1,12.1,3.6c3.6,1.3,7.4,3.3,9,6.9c1.7,4,1.8,9-0.9,12.7
			c-2.6,3.6-6.7,5.9-11,6.8c-7.9,1.3-16.6-0.7-22.3-6.5c1.7-2.4,3.6-4.7,6.2-6.2c2.7,3,6.9,4.1,10.8,4.3c2.3,0,4.8-0.2,6.7-1.7
			c2.1-1.8,2.1-5.3,0-7.1c-1.9-1.6-4.4-2-6.7-2.3c-4-0.4-8-1.7-11.4-4c-2.8-2-3.8-5.6-3.8-8.8C177,237.8,179.1,234.3,182,232z"/>
		<path class="st3" d="M218.5,228.4c3.3-0.5,6.7-0.5,10,0c0,5.9,0,11.7,0,17.6c5.4,0,10.9,0,16.3,0c0-5.9,0-11.8,0-17.6
			c3.3-0.5,6.7-0.5,10,0c0,15,0,30,0,45c-3.3,0.5-6.7,0.5-10,0c0-6.5,0-13,0-19.5c-5.4,0-10.9,0-16.3,0c0,6.5,0,13,0,19.5
			c-3.3,0.5-6.7,0.5-10,0C218.5,258.4,218.5,243.4,218.5,228.4z"/>
		<path class="st3" d="M279.4,228.1c2.9-0.2,5.8-0.1,8.7,0.3c5,15,10.2,30,15.2,45c-3.5,0.5-7,0.5-10.5,0c-0.5-1.2-0.9-2.3-1.3-3.5
			c-6,0-11.9,0-17.9,0c0.7-2.5,1.5-5.1,2.2-7.6c4.4,0,8.9,0,13.3,0C285.9,250.9,282.6,239.5,279.4,228.1z"/>
		<path class="st3" d="M310.3,228.6c6.5-0.7,13.1-1.2,19.5-0.3c4.1,0.6,8.4,2.1,11.2,5.3c3,3.4,3.5,8.5,2.1,12.8
			c-1.2,3.6-4.2,6.3-7.4,8.1c4,6.3,7.9,12.7,11.8,19c-3.6,0.4-7.3,0.6-11,0c-4.3-7-8.5-13.9-12.7-20.9c2.8-1.3,5.9-2.5,7.9-5
			c2.6-3.1,2.1-8.7-1.6-10.8c-3-1.8-6.6-1.3-9.9-1.2c0,12.7,0,25.3,0,38c-3.3,0.4-6.6,0.4-9.9,0
			C310.3,258.6,310.3,243.6,310.3,228.6z"/>
		<path class="st3" d="M277,228.4c0.4,0,1.1-0.1,1.4-0.1c1,3.7,2.1,7.4,3.1,11.1c-3.3,11.4-6.9,22.7-10.3,34.1
			c-3.2,0.5-6.5,0.5-9.7,0C266.7,258.4,271.8,243.4,277,228.4z"/>
		<path class="st3" d="M354.4,228.4c9.2,0,18.5,0,27.7,0c0.5,2.6,0.5,5.2,0,7.8c-5.9,0-11.9,0-17.8,0c0,3.2,0,6.5,0,9.7
			c4.7,0,9.4,0,14.1,0c0.5,2.6,0.5,5.3,0,7.9c-4.7,0-9.4,0-14.1,0c0,3.9,0,7.9,0,11.8c6.1,0,12.2,0,18.3,0c0.5,2.6,0.5,5.2,0,7.8
			c-9.4,0-18.7,0-28.1,0C354.4,258.4,354.4,243.4,354.4,228.4z"/>
		<path class="st3" d="M388,241.7c4.7,0,9.3,0,14,0c0,10.6,0,21.1,0,31.7c-3.1,0.5-6.3,0.5-9.4,0c0-8.1,0-16.2,0-24.3
			c-1.5,0-3,0-4.5,0C387.5,246.7,387.5,244.2,388,241.7z"/>
	</g>
</g>
</svg>
